<?xml version="1.0" encoding="utf-8"?>
<!-- Generator: Adobe Illustrator 18.0.0, SVG Export Plug-In . SVG Version: 6.00 Build 0)  -->
<!DOCTYPE svg PUBLIC "-//W3C//DTD SVG 1.1//EN" "http://www.w3.org/Graphics/SVG/1.1/DTD/svg11.dtd">
<svg version="1.1" id="faq" xmlns="http://www.w3.org/2000/svg" xmlns:xlink="http://www.w3.org/1999/xlink" x="0px" y="0px"
	 viewBox="0 0 72 72" enable-background="new 0 0 72 72" xml:space="preserve">
<g>
	<path fill="#FFFFFF" d="M15.4,53.6c-2.7,0-4.9-2.2-4.9-4.9V11.1h-0.5c-2.6,0-4.8,2.1-4.8,4.8v37.3c0,2.6,2.1,4.8,4.8,4.8h11.5
		l8.4,13.1V58h5.8v-4.4H15.4z"/>
	<path fill="#FFFFFF" d="M49,58.3h8.2c2.5,0,4.5-1.9,4.7-4.4H51.8L49,58.3z"/>
	<path fill="#FFFFFF" d="M61.6,0.9H20.9c-2.7,0-4.9,2.2-4.9,4.9v0.6V44c0,2.7,2.2,4.9,4.9,4.9h20.3v4.4v9l5.8-9l2.8-4.4H60h1.6
		c2.7,0,4.9-2.2,4.9-4.9V5.8C66.4,3.1,64.3,0.9,61.6,0.9z M56.9,43.6H25.6c-2,0-3.6-1.6-3.6-3.6V10.1c0-2,1.6-3.6,3.6-3.6h29.7
		c2.6,0,4.8,2.1,4.8,4.8v30.5C59.4,42.8,58.3,43.6,56.9,43.6z"/>
</g>
<g>
	<polygon fill="#FFFFFF" points="44.3,40 37.5,40 37.5,34.6 44.3,34.6 44.3,40 	"/>
	<path fill="#FFFFFF" d="M51.1,21.6c-0.4,0.9-0.8,1.6-1.3,2.3c-0.5,0.6-1.1,1.2-1.8,1.6c-0.6,0.4-1.2,0.9-1.8,1.3
		c-0.6,0.4-0.7,0.9-1.1,1.5c-0.4,0.6-0.4,1.3-0.4,2.1v1.7h-7.1v-2c0-1.2,0.6-2.2,1-3.1c0.4-0.8,1-1.5,1.5-2.1
		c0.5-0.6,1.1-1.1,1.7-1.5c0.6-0.4,1.1-0.9,1.6-1.3c0.5-0.4,0.9-0.9,1.2-1.4c0.3-0.5,0.4-1.1,0.4-1.9c0-1.3-0.3-2.3-1-2.9
		c-0.6-0.6-1.5-0.9-2.7-0.9c-0.8,0-1.4,0.1-2,0.4s-1,0.7-1.4,1.2c-0.4,0.5-0.6,1.5-0.8,2.2C37,19.5,37,21.5,37,21.5h-6.3
		c0-3.6,0.3-3.4,0.8-4.7c0.5-1.3,1.2-2.6,2.1-3.6c0.9-0.9,2-1.8,3.2-2.3c1.3-0.5,2.7-0.8,4.2-0.8c2,0,3.7,0.2,5.1,0.8
		c1.4,0.6,2.4,1.2,3.3,2.1c0.8,0.8,1.4,1.7,1.8,2.7c0.4,1,0.5,1.8,0.5,2.7C51.7,19.6,51.5,20.7,51.1,21.6z"/>
</g>
</svg>
