<?xml version="1.0" encoding="utf-8"?>
<!-- Generator: Adobe Illustrator 18.0.0, SVG Export Plug-In . SVG Version: 6.00 Build 0)  -->
<!DOCTYPE svg PUBLIC "-//W3C//DTD SVG 1.1//EN" "http://www.w3.org/Graphics/SVG/1.1/DTD/svg11.dtd">
<svg version="1.1" id="section_copy" xmlns="http://www.w3.org/2000/svg" xmlns:xlink="http://www.w3.org/1999/xlink" x="0px"
	 y="0px" viewBox="0 0 72 72" enable-background="new 0 0 72 72" xml:space="preserve">
<g>
	<path fill="#333333" d="M71.4,46.6H1V9.4h70.3V46.6z M5.2,42.4h62.1V13.6H5.2V42.4z"/>
</g>
<g>
	<g>
		<rect x="67.2" y="67.2" fill="#333333" width="4.1" height="4.1"/>
	</g>
	<g>
		<path fill="#333333" d="M63.1,71.4h-4.1v-4.1h4.1V71.4z M54.8,71.4h-4.1v-4.1h4.1V71.4z M46.5,71.4h-4.1v-4.1h4.1V71.4z
			 M38.3,71.4h-4.1v-4.1h4.1V71.4z M30,71.4h-4.1v-4.1H30V71.4z M21.7,71.4h-4.1v-4.1h4.1V71.4z M13.4,71.4H9.3v-4.1h4.1V71.4z"/>
	</g>
	<g>
		<rect x="1" y="67.2" fill="#333333" width="4.1" height="4.1"/>
	</g>
	<g>
		<path fill="#333333" d="M5.2,63.1H1V59h4.1V63.1z M5.2,54.8H1v-4.1h4.1V54.8z"/>
	</g>
	<g>
		<rect x="1" y="1" fill="#333333" width="4.1" height="4.1"/>
	</g>
	<g>
		<path fill="#333333" d="M63.1,5.2h-4.1V1h4.1V5.2z M54.8,5.2h-4.1V1h4.1V5.2z M46.5,5.2h-4.1V1h4.1V5.2z M38.3,5.2h-4.1V1h4.1V5.2
			z M30,5.2h-4.1V1H30V5.2z M21.7,5.2h-4.1V1h4.1V5.2z M13.4,5.2H9.3V1h4.1V5.2z"/>
	</g>
	<g>
		<rect x="67.2" y="1" fill="#333333" width="4.1" height="4.1"/>
	</g>
	<g>
		<path fill="#333333" d="M71.4,63.1h-4.1V59h4.1V63.1z M71.4,54.8h-4.1v-4.1h4.1V54.8z"/>
	</g>
</g>
</svg>
