<?xml version="1.0" encoding="utf-8"?>
<!-- Generator: Adobe Illustrator 18.0.0, SVG Export Plug-In . SVG Version: 6.00 Build 0)  -->
<!DOCTYPE svg PUBLIC "-//W3C//DTD SVG 1.1//EN" "http://www.w3.org/Graphics/SVG/1.1/DTD/svg11.dtd">
<svg version="1.1" id="Layer_1" xmlns="http://www.w3.org/2000/svg" xmlns:xlink="http://www.w3.org/1999/xlink" x="0px" y="0px"
	 viewBox="0 0 45 45" enable-background="new 0 0 45 45" xml:space="preserve">
<path fill="#FFFFFF" stroke="#FFFFFF" stroke-width="2" stroke-miterlimit="10" d="M42.2,4.6h-24V3.4c0-0.6-0.5-1.1-1.1-1.1H3.4
	c-0.6,0-1.1,0.5-1.1,1.1v38.8c0,0.6,0.5,1.1,1.1,1.1h38.8c0.6,0,1.1-0.5,1.1-1.1V11.4V5.7C43.4,5.1,42.9,4.6,42.2,4.6z M18.3,6.9
	h10.3v4.7H18.3V6.9z M41.1,41.1H4.6V4.6H16v6.8c0,0.6,0.5,1.1,1.1,1.1h24V41.1z M41.1,11.6H30.8V6.9h10.3V11.6z"/>
</svg>
