<?xml version="1.0" encoding="utf-8"?>
<!-- Generator: Adobe Illustrator 18.0.0, SVG Export Plug-In . SVG Version: 6.00 Build 0)  -->
<!DOCTYPE svg PUBLIC "-//W3C//DTD SVG 1.1//EN" "http://www.w3.org/Graphics/SVG/1.1/DTD/svg11.dtd">
<svg version="1.1" id="Layer_1" xmlns="http://www.w3.org/2000/svg" xmlns:xlink="http://www.w3.org/1999/xlink" x="0px" y="0px"
	 viewBox="0 0 72 72" enable-background="new 0 0 72 72" xml:space="preserve">
<g id="boxes2">
	<polygon fill="#FFFFFF" points="33.2,22.5 23.1,22.5 23.1,32.9 13.1,32.9 13.1,22.5 3,22.5 3,12.6 13.1,12.6 13.1,2.6 23.1,2.6 
		23.1,12.6 33.2,12.6 	"/>
	<path fill="#FFFFFF" d="M34.2,65.5c0,2.1-1.7,3.9-3.9,3.9H5.9c-2.1,0-3.9-1.7-3.9-3.9V41.1c0-2.1,1.7-3.9,3.9-3.9h24.5
		c2.1,0,3.9,1.7,3.9,3.9C34.2,41.1,34.2,65.5,34.2,65.5z"/>
	<path fill="#FFFFFF" stroke="#FFFFFF" stroke-miterlimit="10" d="M66.3,70H41.9c-2.1,0-3.9-1.7-3.9-3.9V41.7c0-2.1,1.7-3.9,3.9-3.9
		h24.5c2.1,0,3.9,1.7,3.9,3.9v24.4C70.2,68.3,68.5,70,66.3,70z M65.7,45.1c0-1.5-1.2-2.8-2.8-2.8H45.3c-1.5,0-2.8,1.2-2.8,2.8v17.6
		c0,1.5,1.2,2.8,2.8,2.8h17.6c1.5,0,2.8-1.2,2.8-2.8C65.7,62.7,65.7,45.1,65.7,45.1z"/>
	<path fill="#FFFFFF" d="M70.2,5.5c0-2.1-1.7-3.9-3.9-3.9H41.9c-2.1,0-3.9,1.7-3.9,3.9v24.4c0,2.1,1.7,3.9,3.9,3.9h24.5
		c2.1,0,3.9-1.7,3.9-3.9L70.2,5.5L70.2,5.5z"/>
</g>
</svg>
