<?xml version="1.0" encoding="utf-8"?>
<!-- Generator: Adobe Illustrator 18.0.0, SVG Export Plug-In . SVG Version: 6.00 Build 0)  -->
<!DOCTYPE svg PUBLIC "-//W3C//DTD SVG 1.1//EN" "http://www.w3.org/Graphics/SVG/1.1/DTD/svg11.dtd">
<svg version="1.1" id="_x33_-col_white_copy" xmlns="http://www.w3.org/2000/svg" xmlns:xlink="http://www.w3.org/1999/xlink"
	 x="0px" y="0px" viewBox="0 0 96 72" enable-background="new 0 0 96 72" xml:space="preserve">
<path fill="#FFFFFF" d="M90.5,3h-21c-4.7,0-4.7,0-4.7,2.7v60.2c0,2.7,0,2.7,4.7,2.7h21c4.7,0,4.7,0,4.7-2.7V5.7
	C95.2,3,95.2,3,90.5,3z"/>
<path fill="#FFFFFF" d="M26.6,3h-21C1,3,1,3,1,5.7v60.2c0,2.7,0,2.7,4.7,2.7h21c4.7,0,4.7,0,4.7-2.7V5.7C31.2,3,31.2,3,26.6,3z"/>
<path fill="#FFFFFF" d="M59,3H37.4c-4.3,0-4.3,0-4.3,2.7v60.2c0,2.7,0,2.7,4.3,2.7H59c4.3,0,4.3,0,4.3-2.7V5.7C63.4,3,63.4,3,59,3z"
	/>
</svg>
