<?xml version="1.0" encoding="utf-8"?>
<!-- Generator: Adobe Illustrator 18.0.0, SVG Export Plug-In . SVG Version: 6.00 Build 0)  -->
<!DOCTYPE svg PUBLIC "-//W3C//DTD SVG 1.1//EN" "http://www.w3.org/Graphics/SVG/1.1/DTD/svg11.dtd">
<svg version="1.1" id="guide_collections" xmlns="http://www.w3.org/2000/svg" xmlns:xlink="http://www.w3.org/1999/xlink" x="0px"
	 y="0px" viewBox="0 0 45 45" enable-background="new 0 0 45 45" xml:space="preserve">
<g>
	<g>
		<g>
			<path fill="#333333" d="M10.8,23.3H3.3V0.8h13.4l5.8,5.8v12.7l-11.7,0.1L10.8,23.3z M5.3,21.4h3.5l0-4l11.7-0.1V7.4l-4.7-4.7H5.3
				V21.4z"/>
		</g>
		<g>
			<polygon fill="#333333" points="21.5,8.7 14.4,8.7 14.4,1.8 16.3,1.8 18.3,4.8 21.5,6.7 			"/>
		</g>
	</g>
</g>
<g>
	<g>
		<g>
			<path fill="#333333" d="M42.1,31.9H29.6V25L23,18.6V9.4h13.4l5.8,5.8V31.9z M31.6,29.9h8.6V16l-4.7-4.7H24.9v6.5l6.7,6.4V29.9z"
				/>
		</g>
		<g>
			<polygon fill="#333333" points="41.1,17.3 34,17.3 34,10.4 35.9,10.4 38.2,13.3 41.1,15.3 			"/>
		</g>
	</g>
</g>
<g>
	<g>
		<g>
			<path fill="#333333" d="M31.6,44.2H8.8V17.4h15.8l6.9,6.9L31.6,44.2L31.6,44.2z M10.8,42.2h18.8V25.1l-5.8-5.8H10.8V42.2z"/>
		</g>
		<g>
			<polygon fill="#333333" points="30.6,26.5 22.1,26.5 22.1,18.4 24.1,18.4 26.6,22.1 30.6,24.5 			"/>
		</g>
	</g>
</g>
</svg>
