<?xml version="1.0" encoding="utf-8"?>
<!-- Generator: Adobe Illustrator 18.0.0, SVG Export Plug-In . SVG Version: 6.00 Build 0)  -->
<!DOCTYPE svg PUBLIC "-//W3C//DTD SVG 1.1//EN" "http://www.w3.org/Graphics/SVG/1.1/DTD/svg11.dtd">
<svg version="1.1" id="Layer_1" xmlns="http://www.w3.org/2000/svg" xmlns:xlink="http://www.w3.org/1999/xlink" x="0px" y="0px"
	 viewBox="0 0 45 45" enable-background="new 0 0 45 45" xml:space="preserve">
<g id="Layer_22">
	<path fill="#333333" stroke="#333333" stroke-width="2" stroke-miterlimit="10" d="M42,4.2H18.3V3.1c0-0.6-0.5-1.1-1.1-1.1H3.7
		c-0.6,0-1.1,0.5-1.1,1.1v38.3c0,0.6,0.5,1.1,1.1,1.1H42c0.6,0,1.1-0.5,1.1-1.1V10.9V5.3C43.1,4.7,42.6,4.2,42,4.2z M18.3,6.4h10.1
		v3.4H18.3V6.4z M40.9,40.2H4.8V4.2h11.2v6.8c0,0.6,0.5,1.1,1.1,1.1h23.7V40.2z M40.9,9.8H30.8V6.4h10.1V9.8z"/>
</g>
</svg>
