<?xml version="1.0" encoding="utf-8"?>
<!-- Generator: Adobe Illustrator 18.0.0, SVG Export Plug-In . SVG Version: 6.00 Build 0)  -->
<!DOCTYPE svg PUBLIC "-//W3C//DTD SVG 1.1//EN" "http://www.w3.org/Graphics/SVG/1.1/DTD/svg11.dtd">
<svg version="1.1" id="Layer_22" xmlns="http://www.w3.org/2000/svg" xmlns:xlink="http://www.w3.org/1999/xlink" x="0px" y="0px"
	 viewBox="0 0 72 72" enable-background="new 0 0 72 72" xml:space="preserve">
<path fill="#FFFFFF" stroke="#FFFFFF" stroke-width="2" stroke-miterlimit="10" d="M67.2,6.7H29.3V4.9c0-1-0.8-1.8-1.8-1.8H5.9
	c-1,0-1.8,0.8-1.8,1.8v61.3c0,1,0.8,1.8,1.8,1.8h61.3c1,0,1.8-0.8,1.8-1.8V17.5v-9C69,7.5,68.2,6.7,67.2,6.7z M29.3,10.3h16.2v5.4
	H29.3V10.3z M65.4,64.4H7.7V6.7h18v10.8c0,1,0.8,1.8,1.8,1.8h37.9V64.4z M65.4,15.7H49.2v-5.4h16.2V15.7z"/>
</svg>
