<?xml version="1.0" encoding="utf-8"?>
<!-- Generator: Adobe Illustrator 19.2.1, SVG Export Plug-In . SVG Version: 6.00 Build 0)  -->
<svg version="1.1" id="Layer_1" xmlns="http://www.w3.org/2000/svg" xmlns:xlink="http://www.w3.org/1999/xlink" x="0px" y="0px"
	 viewBox="0 0 72 72" enable-background="new 0 0 72 72" xml:space="preserve">
<g id="booklist">
	<path fill="#333333" d="M63,29.4v-0.6l-0.1-0.1l-0.6-0.3h-0.1l-2.4-0.9l-2.4,1.2l-0.5,0.1l-15.7,8.6L38.4,39l-3.4,1.7H35l-0.2-0.1
		l-1.9-0.6l-3.7-1.2l-1.3-0.5h-0.1l-2.2-0.8L25,37.4h-0.1l-0.3-0.1h-0.1l-2.4-0.9l-10.9-3.6l-0.2-0.1l-2.7-0.9c0,0,0-0.1-0.1-0.1
		c-2.4-2.6-1.8-7-0.7-10.3l11.7,4.1l0,0h0.1l2.5,0.9h0.1l0.3,0.1l2.7,0.9l0.4,0.2l0.8,0.3l2.9,0.9l0.4,0.2l0.2,0.1l1.6,0.7l1.3,0.5
		l1,0.3h0.1l0.8,0.3l0.4,0.2l0.3-0.2l1.7-0.9l0.3-0.2l0.1-0.1l3.6-1.9l5.5-2.9l0.4-0.2l2.4-1.2L59.2,18l0.3-0.2l2.7-1.4v-0.2
		l0.3-0.2l-0.1-2.4L33.3,3.4l-27.6,15c-0.4,0.3-0.7,0.7-0.9,0.9c-3.1,3.4-2.1,10.7,0,14.2l-1.2,0.7C3.3,34.6,3,35,2.8,35.2
		c-3.7,4.2-1.6,14.1,1.6,15.9l29.4,10.4l27.4-14.6v-0.2L61,45v-0.6h-0.2l-0.6-0.3h-0.1l-2.4-0.9L33.1,56.6H33l-0.1-0.1l-24-7.7
		l-2.7-0.9c0,0,0,0-0.1-0.1c-2.4-2.5-1.9-7.1-0.7-10.4l11.9,4.3l2.7,0.9l11.6,4.2h0.1l1.2,0.4l0.3-0.2l2.2-1.1l11.8-6.3l10.2-5.5
		l0.3-0.2l2.7-1.4v-0.1l2.8-1.5L63,29.4z M31.9,7.5l22.1,8l-3.6,1.8L28.8,9.5L31.9,7.5z M25.8,10.8l22.1,8l-3.6,1.8l-21.6-7.8
		L25.8,10.8z"/>
	<g>
		<path fill="#D5D5D5" stroke="#333333" stroke-width="3" stroke-miterlimit="10" d="M49.6,29c-11.3,0-20.3,9.1-20.3,20.3
			c0,11.3,9.1,20.3,20.3,20.3s20.3-9,20.3-20.3C69.9,38.1,60.9,29,49.6,29z"/>
		<path fill="#333333" d="M59.1,38L59.1,38h-19h-0.2c-1.4,0-2.7,1.3-2.5,2.9c0,1.4,1.3,2.7,2.9,2.5h18.8c1.4,0,2.7-1.3,2.7-2.7
			C61.8,39.3,60.7,38,59.1,38z"/>
		<path fill="#333333" d="M59.1,47.5L59.1,47.5h-19h-0.2c-1.4,0-2.7,1.3-2.5,2.9c0,1.4,1.3,2.7,2.9,2.5h18.8c1.4,0,2.7-1.3,2.7-2.7
			S60.7,47.5,59.1,47.5z"/>
		<path fill="#333333" d="M59.1,57L59.1,57h-19h-0.2c-1.4,0-2.7,1.3-2.5,2.9c0,1.4,1.3,2.7,2.9,2.5h18.8c1.4,0,2.7-1.3,2.7-2.7
			C61.8,58.3,60.7,57,59.1,57z"/>
	</g>
</g>
</svg>
