<?xml version="1.0" encoding="utf-8"?>
<!-- Generator: Adobe Illustrator 18.0.0, SVG Export Plug-In . SVG Version: 6.00 Build 0)  -->
<!DOCTYPE svg PUBLIC "-//W3C//DTD SVG 1.1//EN" "http://www.w3.org/Graphics/SVG/1.1/DTD/svg11.dtd">
<svg version="1.1" id="_x32_-col_white_copy" xmlns="http://www.w3.org/2000/svg" xmlns:xlink="http://www.w3.org/1999/xlink"
	 x="0px" y="0px" viewBox="0 0 96 72" enable-background="new 0 0 96 72" xml:space="preserve">
<path fill="#FFFFFF" d="M90.8,3h-37c-4.1,0-4.1,0-4.1,2.7v60.5c0,2.7,0,2.7,4.1,2.7h37c4.1,0,4.1,0,4.1-2.7V5.7
	C94.9,3,94.9,3,90.8,3z"/>
<path fill="#FFFFFF" d="M42.1,3h-37C1,3,1,3,1,5.7v60.5c0,2.7,0,2.7,4.1,2.7h37c4.1,0,4.1,0,4.1-2.7V5.7C46.2,3,46.2,3,42.1,3z"/>
</svg>
