<?xml version="1.0" encoding="utf-8"?>
<!-- Generator: Adobe Illustrator 18.0.0, SVG Export Plug-In . SVG Version: 6.00 Build 0)  -->
<!DOCTYPE svg PUBLIC "-//W3C//DTD SVG 1.1//EN" "http://www.w3.org/Graphics/SVG/1.1/DTD/svg11.dtd">
<svg version="1.1" id="gbooks" xmlns="http://www.w3.org/2000/svg" xmlns:xlink="http://www.w3.org/1999/xlink" x="0px" y="0px"
	 viewBox="0 0 45 45" enable-background="new 0 0 45 45" xml:space="preserve">
<g>
	<path fill="#FFFFFF" d="M22.2,13.9c-0.3-2.5-2.1-4.4-4-4.5c-1.9-0.1-3.1,1.8-2.8,4.3c0.3,2.5,2.1,4.5,4,4.5
		C21.3,18.3,22.5,16.4,22.2,13.9z"/>
	<path fill="#FFFFFF" d="M13.9,26.8c0,2.1,2,3.9,4.8,3.9c3.9,0,5.3-1.7,5.3-3.8c0-0.3,0-0.5-0.1-0.7c-0.3-1.2-1.4-1.8-2.9-2.8
		c-0.5-0.2-1.2-0.3-1.8-0.3C16.4,23,13.9,24.7,13.9,26.8z"/>
	<path fill="#FFFFFF" d="M38.2,4.9v35.2H10c-1.8,0-3.5-0.9-3.5-3.5h28.2V1.4H8.3C3,1.4,3,1.4,3,6.6v29.9c0,5.3,4.4,7.1,8.8,7.1h29.9
		V8.4L38.2,4.9z M18.7,20.3c0-0.5,0.2-0.9,0.4-1.4c-0.2,0-0.4,0-0.7,0c-3.3,0-5.5-2.4-5.5-5.3c0-2.9,3.1-5.3,6.3-5.3
		c1.8,0,7.3,0,7.3,0l-1.6,1.2h-2.3c1.5,0.6,2.3,2.4,2.3,4.2c0,1.5-0.8,2.8-2,3.8c-1.2,0.9-1.4,1.3-1.4,2.1c0,0.7,1.3,1.8,1.9,2.3
		c1.9,1.4,2.5,2.6,2.5,4.7c0,2.6-2.5,5.2-7.1,5.2c-4,0-7.4-1.6-7.4-4.3c0-2.7,3.1-5.2,7.1-5.2c0.4,0,0.8,0,1.3,0
		C19.1,21.8,18.7,21.1,18.7,20.3z"/>
</g>
</svg>
