<?xml version="1.0" encoding="utf-8"?>
<!-- Generator: Adobe Illustrator 18.0.0, SVG Export Plug-In . SVG Version: 6.00 Build 0)  -->
<!DOCTYPE svg PUBLIC "-//W3C//DTD SVG 1.1//EN" "http://www.w3.org/Graphics/SVG/1.1/DTD/svg11.dtd">
<svg version="1.1" id="guide-search" xmlns="http://www.w3.org/2000/svg" xmlns:xlink="http://www.w3.org/1999/xlink" x="0px"
	 y="0px" viewBox="0 0 72 72" enable-background="new 0 0 72 72" xml:space="preserve">
<g>
	<polygon fill="#333333" points="47.3,1 8,1 8,70 33.9,70 33.9,63.3 14.7,63.3 14.7,7.7 43.1,7.7 43.1,22.1 57.5,22.1 57.5,39.7 
		64.2,39.7 64.2,17.9 	"/>
	<path fill="#333333" d="M56.8,48.1c0-7.9-6.4-14.3-14.3-14.3c-7.9,0-14.3,6.4-14.3,14.3s6.4,14.3,14.3,14.3c2.7,0,5.2-0.7,7.3-2
		l9.7,9.7l4.7-4.7l-9.6-9.6C56,53.5,56.8,50.9,56.8,48.1z M42.5,57c-4.9,0-9-4-9-9s4-9,9-9s9,4,9,9S47.4,57,42.5,57z"/>
</g>
</svg>
