<?xml version="1.0" encoding="utf-8"?>
<!-- Generator: Adobe Illustrator 18.0.0, SVG Export Plug-In . SVG Version: 6.00 Build 0)  -->
<!DOCTYPE svg PUBLIC "-//W3C//DTD SVG 1.1//EN" "http://www.w3.org/Graphics/SVG/1.1/DTD/svg11.dtd">
<svg version="1.1" id="Layer_2" xmlns="http://www.w3.org/2000/svg" xmlns:xlink="http://www.w3.org/1999/xlink" x="0px" y="0px"
	 viewBox="0 0 70 70" enable-background="new 0 0 70 70" xml:space="preserve">
<g>
	<path fill="#333333" d="M68.1,68.1H1.9V1.9h66.3V68.1z M5.8,64.2h58.5V5.8H5.8V64.2z"/>
</g>
<g>
	<g>
		<rect x="8.1" y="47.9" fill="#333333" width="52.9" height="3.9"/>
	</g>
</g>
<g>
	<g>
		<rect x="8.1" y="55.4" fill="#333333" width="52.9" height="3.9"/>
	</g>
</g>
<path fill="#333333" d="M3.8,3.2v39.6h62.3V3.2H3.8z M53.3,34.9L41,22.3l-10.1,5.1l-9.8-10.9L9.6,34.6l-3.3-2.1l14.2-22.4l11.2,12.5
	l10-5l14.3,14.7L53.3,34.9z M54.9,19.1c-3,0-5.4-2.4-5.4-5.4s2.4-5.4,5.4-5.4c3,0,5.4,2.4,5.4,5.4S57.9,19.1,54.9,19.1z"/>
</svg>
