<?xml version="1.0" encoding="utf-8"?>
<!-- Generator: Adobe Illustrator 18.0.0, SVG Export Plug-In . SVG Version: 6.00 Build 0)  -->
<!DOCTYPE svg PUBLIC "-//W3C//DTD SVG 1.1//EN" "http://www.w3.org/Graphics/SVG/1.1/DTD/svg11.dtd">
<svg version="1.1" id="new-guides" xmlns="http://www.w3.org/2000/svg" xmlns:xlink="http://www.w3.org/1999/xlink" x="0px" y="0px"
	 viewBox="0 0 72 72" enable-background="new 0 0 72 72" xml:space="preserve">
<g display="none">
	<g display="inline">
		<path fill="#FFFFFF" d="M39.1,54.9c-1.9,0-3.5,1.6-3.5,3.5v0.1H8.3v-44h13.5c1.9,0,3.5-1.6,3.5-3.5s-1.6-3.5-3.5-3.5h-17
			c-1.9,0-3.5,1.6-3.5,3.5V62c0,1.9,1.6,3.5,3.5,3.5h34.2c1.9,0,3.5-1.6,3.5-3.5v-3.6C42.5,56.5,41,54.9,39.1,54.9z"/>
		<path fill="#FFFFFF" d="M68.9,54.9l-9.4-9.4c-1.3-1.3-3.5-1.3-4.8-0.1c3.6-3.7,5.8-8.7,5.8-14.2c0-11.1-9-20.2-20.1-20.2
			S20.2,20,20.2,31.2s9,20.2,20.1,20.2c5.5,0,10.5-2.2,14.2-5.9c-1.3,1.4-1.3,3.5,0.1,4.8l9.4,9.4c0.7,0.7,1.6,1,2.4,1
			c0.9,0,1.8-0.3,2.5-1C70.3,58.4,70.3,56.2,68.9,54.9z M40.4,44.4c-7.3,0-13.2-5.9-13.2-13.3c0-7.3,5.9-13.3,13.2-13.3
			s13.2,5.9,13.2,13.3C53.6,38.5,47.6,44.4,40.4,44.4z"/>
	</g>
</g>
<g>
	<polygon fill="#FFFFFF" points="47.3,1 8,1 8,70 33.9,70 33.9,63.3 14.7,63.3 14.7,7.7 43.1,7.7 43.1,22.1 57.5,22.1 57.5,39.7 
		64.2,39.7 64.2,17.9 	"/>
</g>
<g>
	<path fill="#FFFFFF" d="M33.2,57.5c0,0.2,0,0.3-0.1,0.4c-0.1,0.1-0.1,0.2-0.2,0.3c-0.1,0.1-0.2,0.1-0.3,0.2s-0.3,0.1-0.4,0.1H31
		c-0.2,0-0.5,0-0.6-0.1c-0.2,0-0.3-0.1-0.5-0.3c-0.1-0.1-0.3-0.3-0.4-0.5c-0.1-0.2-0.3-0.5-0.5-0.8l-3.4-6.3
		c-0.2-0.4-0.4-0.8-0.6-1.2s-0.4-0.9-0.5-1.3h0c0,0.5,0,1,0.1,1.5c0,0.5,0,1,0,1.5v7.1c0,0.1,0,0.1-0.1,0.2c0,0.1-0.1,0.1-0.2,0.1
		s-0.2,0.1-0.4,0.1c-0.2,0-0.4,0-0.6,0c-0.2,0-0.4,0-0.6,0c-0.2,0-0.3-0.1-0.4-0.1s-0.2-0.1-0.2-0.1s-0.1-0.1-0.1-0.2V46
		c0-0.3,0.1-0.6,0.3-0.7c0.2-0.2,0.4-0.2,0.7-0.2h1.5c0.3,0,0.5,0,0.7,0.1c0.2,0,0.3,0.1,0.5,0.2c0.1,0.1,0.3,0.2,0.4,0.4
		c0.1,0.2,0.3,0.4,0.4,0.7l2.6,4.9c0.2,0.3,0.3,0.6,0.5,0.9c0.1,0.3,0.3,0.6,0.4,0.9c0.1,0.3,0.3,0.6,0.4,0.8
		c0.1,0.3,0.3,0.6,0.4,0.8h0c0-0.5,0-1,0-1.5c0-0.5,0-1,0-1.5v-6.3c0-0.1,0-0.1,0.1-0.2c0-0.1,0.1-0.1,0.2-0.1
		c0.1,0,0.2-0.1,0.4-0.1c0.2,0,0.4,0,0.6,0c0.2,0,0.4,0,0.6,0c0.2,0,0.3,0,0.4,0.1s0.1,0.1,0.2,0.1c0,0.1,0.1,0.1,0.1,0.2V57.5z"/>
	<path fill="#FFFFFF" d="M44.1,57.4c0,0.2,0,0.4,0,0.5s0,0.2-0.1,0.3c0,0.1-0.1,0.1-0.1,0.2c-0.1,0-0.1,0.1-0.2,0.1h-6.8
		c-0.2,0-0.4-0.1-0.6-0.2c-0.2-0.1-0.2-0.4-0.2-0.7V45.8c0-0.3,0.1-0.5,0.2-0.7c0.2-0.1,0.3-0.2,0.6-0.2h6.7c0.1,0,0.1,0,0.2,0.1
		c0,0,0.1,0.1,0.1,0.2c0,0.1,0.1,0.2,0.1,0.3c0,0.1,0,0.3,0,0.5c0,0.2,0,0.4,0,0.5c0,0.1,0,0.2-0.1,0.3c0,0.1-0.1,0.1-0.1,0.2
		c0,0-0.1,0.1-0.2,0.1h-4.8v3.3h4.1c0.1,0,0.1,0,0.2,0.1s0.1,0.1,0.1,0.2c0,0.1,0.1,0.2,0.1,0.3c0,0.1,0,0.3,0,0.5
		c0,0.2,0,0.4,0,0.5c0,0.1,0,0.2-0.1,0.3c0,0.1-0.1,0.1-0.1,0.2c-0.1,0-0.1,0.1-0.2,0.1h-4.1v3.8h4.9c0.1,0,0.1,0,0.2,0.1
		c0.1,0,0.1,0.1,0.1,0.2c0,0.1,0.1,0.2,0.1,0.3S44.1,57.2,44.1,57.4z"/>
	<path fill="#FFFFFF" d="M60.7,57.8c0,0.2-0.1,0.3-0.2,0.4s-0.2,0.2-0.3,0.2c-0.1,0.1-0.3,0.1-0.6,0.1c-0.2,0-0.5,0-0.9,0
		c-0.4,0-0.7,0-1,0c-0.2,0-0.4-0.1-0.6-0.1c-0.1-0.1-0.2-0.1-0.3-0.2s-0.1-0.2-0.1-0.4l-2.2-8.5h0l-2,8.5c0,0.2-0.1,0.3-0.1,0.4
		s-0.2,0.2-0.3,0.2s-0.3,0.1-0.6,0.1c-0.2,0-0.5,0-0.9,0c-0.4,0-0.7,0-1,0c-0.2,0-0.4-0.1-0.6-0.1c-0.1-0.1-0.2-0.1-0.3-0.2
		s-0.1-0.2-0.2-0.4L45.6,46c-0.1-0.2-0.1-0.4-0.1-0.6s0-0.3,0.1-0.3s0.2-0.1,0.4-0.1s0.5,0,0.8,0c0.3,0,0.6,0,0.8,0s0.3,0,0.4,0.1
		s0.2,0.1,0.2,0.2c0,0.1,0.1,0.2,0.1,0.3l2.4,10.3h0l2.5-10.3c0-0.1,0.1-0.2,0.1-0.3c0-0.1,0.1-0.1,0.2-0.2c0.1,0,0.3-0.1,0.4-0.1
		s0.4,0,0.8,0c0.3,0,0.6,0,0.8,0c0.2,0,0.4,0,0.5,0.1c0.1,0,0.2,0.1,0.2,0.2c0,0.1,0.1,0.2,0.1,0.3l2.5,10.3h0l2.4-10.3
		c0-0.1,0-0.2,0.1-0.3s0.1-0.1,0.2-0.2c0.1,0,0.2-0.1,0.4-0.1s0.4,0,0.8,0c0.3,0,0.5,0,0.7,0c0.2,0,0.3,0.1,0.4,0.1
		c0.1,0.1,0.1,0.2,0.1,0.3c0,0.1,0,0.4-0.1,0.6L60.7,57.8z"/>
</g>
</svg>
