<?xml version="1.0" encoding="utf-8"?>
<!-- Generator: Adobe Illustrator 18.0.0, SVG Export Plug-In . SVG Version: 6.00 Build 0)  -->
<!DOCTYPE svg PUBLIC "-//W3C//DTD SVG 1.1//EN" "http://www.w3.org/Graphics/SVG/1.1/DTD/svg11.dtd">
<svg version="1.1" id="Layer_1" xmlns="http://www.w3.org/2000/svg" xmlns:xlink="http://www.w3.org/1999/xlink" x="0px" y="0px"
	 viewBox="0 0 30 30" enable-background="new 0 0 30 30" xml:space="preserve">
<g>
	<path fill-rule="evenodd" clip-rule="evenodd" fill="#333333" d="M10.2,15.7c0.9,0.4,1.4,1.4,1,2.3c-0.4,0.9-1.4,1.4-2.3,1
		c0,0-1.3-0.6-2.1-1.1C1.6,14.7,2.2,10,2.9,7.1c0.3-1.2,1.2-3.9,1.2-3.9c0.4-0.9,1.4-1.4,2.3-1c0.9,0.4,1.4,1.4,1,2.3
		c0,0-0.9,2.4-1.1,3.5c-0.3,1.8-1,4.8,2.5,6.8C9.7,15.5,10.2,15.7,10.2,15.7z"/>
	<path fill-rule="evenodd" clip-rule="evenodd" fill="#333333" d="M11.9,10.5c-0.1,1-0.9,1.7-1.9,1.6c-1-0.1-1.7-0.9-1.6-1.9
		c0,0,0.2-1.5,0.4-2.4C10.4,2,15,1.2,17.9,1C19.2,0.9,22,1,22,1c1,0.1,1.7,1,1.6,1.9c-0.1,1-0.9,1.7-1.9,1.6c0,0-2.6-0.2-3.7,0
		c-1.8,0.2-4.9,0.4-5.8,4.4C12,10,11.9,10.5,11.9,10.5z"/>
	<path fill-rule="evenodd" clip-rule="evenodd" fill="#333333" d="M17.4,10.4c-1,0.2-1.9-0.3-2.2-1.3c-0.2-0.9,0.3-1.9,1.3-2.2
		c0,0,1.4-0.3,2.4-0.4c6.1-0.4,8.3,3.7,9.5,6.4c0.5,1.2,1.3,3.8,1.3,3.8c0.2,0.9-0.3,1.9-1.3,2.2c-1,0.2-1.9-0.3-2.2-1.3
		c0,0-0.7-2.5-1.2-3.5c-0.8-1.6-2-4.5-6.1-4C17.9,10.3,17.4,10.4,17.4,10.4z"/>
	<path fill-rule="evenodd" clip-rule="evenodd" fill="#333333" d="M19.1,15.5c-0.5-0.8-0.3-1.9,0.6-2.5c0.8-0.5,1.9-0.3,2.5,0.6
		c0,0,0.7,1.3,1.1,2.2c2.3,5.6-1,9.1-3.1,11c-1,0.9-3.2,2.5-3.2,2.5c-0.8,0.5-1.9,0.3-2.5-0.6c-0.5-0.8-0.3-1.9,0.6-2.5
		c0,0,2.2-1.4,3-2.2c1.3-1.2,3.6-3.3,2-7C19.4,16,19.1,15.5,19.1,15.5z"/>
	<path fill-rule="evenodd" clip-rule="evenodd" fill="#333333" d="M14.6,18.9c0.6-0.8,1.7-0.9,2.5-0.3c0.8,0.6,0.9,1.8,0.3,2.5
		c0,0-1,1.1-1.7,1.7c-4.6,4-8.9,2-11.4,0.6c-1.1-0.6-3.4-2.3-3.4-2.3c-0.8-0.6-0.9-1.7-0.3-2.5c0.6-0.8,1.7-0.9,2.5-0.3
		c0,0,2.1,1.6,3.1,2.1c1.6,0.8,4.3,2.4,7.3-0.4C14.3,19.3,14.6,18.9,14.6,18.9z"/>
</g>
</svg>
