<svg xmlns="http://www.w3.org/2000/svg" xmlns:xlink="http://www.w3.org/1999/xlink" viewBox="0 0 496 496"><defs><linearGradient id="a" x1="423.36" y1="72.66" x2="80.8" y2="415.21" gradientUnits="userSpaceOnUse"><stop offset="0" stop-color="#c054a0"/><stop offset="1" stop-color="#b0248f"/></linearGradient></defs><circle cx="248" cy="248" r="248" style="fill:url(#a)"/><circle cx="248" cy="152" r="42" style="fill:#fff"/><path d="M312,372a12,12,0,0,1-12,12H212a12,12,0,0,1-12-12V348a12,12,0,0,1,12-12h12V272H212a12,12,0,0,1-12-12V236a12,12,0,0,1,12-12h64a12,12,0,0,1,12,12V336h12a12,12,0,0,1,12,12Z" transform="translate(-8 -8)" style="fill:#fff"/></svg>